<?xml version="1.0" standalone="no"?>
<!DOCTYPE svg PUBLIC "-//W3C//DTD SVG 20010904//EN"
 "http://www.w3.org/TR/2001/REC-SVG-20010904/DTD/svg10.dtd">
<svg version="1.0" xmlns="http://www.w3.org/2000/svg"
 width="461.000000pt" height="461.000000pt" viewBox="0 0 461.000000 461.000000"
 preserveAspectRatio="xMidYMid meet">
<metadata>
Created by potrace 1.14, written by Peter Selinger 2001-2017
</metadata>
<g transform="translate(0.000000,461.000000) scale(0.100000,-0.100000)"
fill="#000000" stroke="none">
<path d="M681 4210 c-133 -48 -225 -146 -269 -285 l-19 -59 -65 -22 c-79 -26
-130 -58 -186 -115 -47 -48 -96 -140 -111 -206 -5 -24 -8 -545 -7 -1225 3
-1274 0 -1203 54 -1305 47 -89 184 -192 277 -209 38 -7 39 -9 55 -67 28 -106
116 -214 212 -263 111 -56 32 -54 1694 -54 1659 1 1572 -2 1679 52 98 50 172
140 211 254 l22 66 66 22 c115 39 204 113 255 214 50 99 50 75 49 1310 0 634
-5 1174 -9 1200 -12 64 -61 161 -104 205 -59 61 -103 89 -183 117 l-77 27 -16
56 c-35 119 -117 215 -229 270 l-65 32 -1590 2 c-1558 2 -1591 2 -1644 -17z
m1209 -110 c17 -17 18 -63 18 -861 1 -721 -2 -847 -14 -866 -14 -23 -15 -23
-284 -23 -231 0 -270 2 -270 15 0 8 35 49 78 92 131 131 182 257 177 438 -4
156 -55 280 -162 389 -266 274 -707 231 -917 -89 -69 -106 -95 -202 -91 -337
5 -170 55 -281 183 -407 65 -63 82 -85 71 -92 -8 -5 -125 -9 -261 -9 -213 0
-249 2 -263 16 -14 15 -15 73 -13 578 l3 561 26 56 c56 118 162 184 297 182
39 -1 42 1 43 26 6 176 77 283 221 332 47 15 105 17 596 17 511 0 545 -1 562
-18z m738 4 c22 -14 22 -15 22 -307 0 -235 -3 -297 -14 -312 -13 -18 -31 -19
-321 -20 -240 0 -311 2 -326 13 -18 12 -19 30 -19 312 0 295 0 299 22 314 31
22 602 22 636 0z m1117 -1 c17 -16 16 -5 17 -344 0 -135 -3 -255 -6 -267 -4
-12 -15 -23 -24 -23 -9 -1 -235 -2 -501 -3 -459 -1 -486 0 -502 17 -16 17 -17
47 -16 311 2 225 5 297 15 309 12 14 69 15 508 15 419 0 497 -3 509 -15z m204
-27 c84 -44 148 -151 158 -264 l6 -70 35 3 c43 3 126 -16 167 -37 50 -26 106
-88 134 -147 l26 -56 3 -374 c3 -330 1 -375 -13 -391 -15 -16 -48 -17 -455
-17 -363 -1 -440 2 -444 13 -3 8 2 20 11 26 62 48 153 154 182 210 66 131 69
154 70 638 0 239 1 445 1 458 0 43 45 46 119 8z m-2764 -707 c337 -130 454
-517 244 -805 -102 -139 -261 -216 -435 -210 -141 5 -255 55 -354 156 -212
215 -204 548 17 750 61 56 128 94 213 121 80 25 234 19 315 -12z m1448 17 c10
-11 16 -50 19 -143 4 -110 9 -138 33 -198 38 -96 85 -164 162 -235 40 -37 63
-65 60 -74 -8 -21 -881 -21 -914 0 l-23 14 0 310 c0 267 2 311 16 324 13 14
57 16 324 16 255 0 311 -2 323 -14z m1118 -2 c18 -22 14 -200 -7 -273 -63
-219 -259 -376 -481 -386 -254 -11 -480 162 -536 410 -19 83 -17 243 3 255 9
6 216 10 511 10 445 0 498 -2 510 -16z m-5 -739 c14 -10 17 -32 16 -140 0
-112 -2 -131 -18 -142 -14 -10 -186 -13 -880 -13 -771 0 -864 2 -878 16 -23
22 -23 249 -1 274 15 16 79 18 880 18 662 0 868 -3 881 -13z m717 -2 c24 -22
26 -253 1 -277 -13 -14 -55 -16 -308 -16 -219 0 -296 3 -309 13 -15 10 -18 31
-18 142 0 106 3 132 16 141 11 8 105 12 308 12 251 0 294 -2 310 -15z m-3278
-383 c164 -64 255 -254 200 -415 -48 -138 -152 -218 -309 -235 -145 -17 -240
-61 -320 -150 -61 -68 -89 -141 -93 -237 -3 -98 14 -163 62 -238 59 -92 178
-169 278 -179 23 -3 231 -5 463 -5 l421 -1 12 -26 c7 -16 11 -66 10 -126 -1
-91 -3 -100 -24 -114 -20 -13 -101 -14 -581 -12 -555 3 -559 3 -605 25 -104
51 -176 158 -185 275 -3 35 -7 64 -9 66 -2 2 -31 5 -65 7 -90 5 -178 50 -229
118 -71 95 -71 95 -71 701 0 470 2 542 15 556 14 16 56 17 493 15 475 -1 477
-1 537 -25z m707 12 c19 -19 22 -1362 3 -1389 -13 -17 -38 -18 -442 -17 -235
1 -441 4 -457 7 -59 13 -136 59 -183 111 -91 100 -113 236 -56 357 59 127 150
187 308 204 97 11 148 27 210 66 212 133 254 400 95 597 -31 39 -45 63 -38 70
15 15 544 10 560 -6z m1859 1 c14 -14 17 -539 3 -553 -12 -12 -22 -4 -69 53
-42 52 -133 122 -203 155 -125 60 -304 66 -442 16 -275 -99 -440 -392 -379
-673 6 -28 10 -53 10 -56 0 -2 18 -42 41 -87 105 -209 314 -332 548 -323 181
6 319 77 448 229 24 28 36 36 44 28 7 -7 10 -96 10 -263 0 -232 -1 -254 -18
-266 -14 -10 -182 -13 -880 -13 -771 0 -864 2 -878 16 -14 14 -16 106 -16 869
0 844 0 854 20 868 17 12 157 14 885 13 648 -1 867 -4 876 -13z m712 -2 c24
-19 25 -252 1 -275 -13 -14 -56 -16 -313 -16 -229 0 -301 3 -309 13 -10 12
-14 89 -13 220 1 50 4 59 23 66 13 5 152 8 309 7 226 -1 289 -4 302 -15z
m-1083 -377 c91 -26 166 -72 234 -144 77 -82 118 -163 143 -280 1 -8 3 -46 3
-85 1 -137 -50 -255 -155 -361 -149 -150 -354 -197 -548 -124 -335 126 -449
538 -226 820 73 93 211 173 320 186 30 3 55 8 57 9 8 7 122 -7 172 -21z m1084
7 c14 -12 16 -49 16 -320 0 -230 -3 -311 -12 -324 -12 -16 -42 -17 -311 -18
-214 0 -303 3 -313 12 -21 17 -21 625 0 648 13 14 52 16 309 16 232 0 298 -3
311 -14z m-57 -730 c33 -1 63 -22 59 -43 -22 -126 -177 -245 -304 -234 -17 1
-36 -1 -42 -4 -5 -3 -11 -32 -14 -63 -6 -80 -22 -124 -66 -182 -49 -66 -145
-120 -184 -105 -30 11 -27 -25 -26 350 0 232 2 256 18 270 17 14 164 17 559
11z"/>
</g>
</svg>
